<?xml version="1.0" encoding="UTF-8"?><svg id="Vrstva_1" xmlns="http://www.w3.org/2000/svg" xmlns:xlink="http://www.w3.org/1999/xlink" viewBox="0 0 1024 768"><defs><style>.cls-1{letter-spacing:0em;}.cls-1,.cls-2,.cls-3,.cls-4,.cls-5,.cls-6,.cls-7,.cls-8,.cls-9,.cls-10,.cls-11,.cls-12,.cls-13,.cls-14,.cls-15,.cls-16,.cls-17,.cls-18{font-family:MyriadPro-Light, 'Myriad Pro';}.cls-2,.cls-19{letter-spacing:0em;}.cls-20,.cls-21,.cls-22,.cls-23,.cls-24,.cls-19,.cls-25,.cls-26,.cls-27,.cls-28{font-family:MyriadPro-Regular, 'Myriad Pro';}.cls-20,.cls-12{letter-spacing:.02em;}.cls-3{letter-spacing:0em;}.cls-4{letter-spacing:.03em;}.cls-29,.cls-30,.cls-31,.cls-32,.cls-33,.cls-34,.cls-35,.cls-36,.cls-37{fill:none;stroke-miterlimit:10;}.cls-29,.cls-30,.cls-34,.cls-35,.cls-36{stroke:#b3b3b3;}.cls-29,.cls-32,.cls-33,.cls-34,.cls-35,.cls-37{stroke-width:1px;}.cls-5{letter-spacing:-.02em;}.cls-30,.cls-31{stroke-width:5.67px;}.cls-30,.cls-31,.cls-33,.cls-34,.cls-36{stroke-linecap:round;}.cls-31,.cls-32,.cls-33,.cls-37{stroke:#000;}.cls-21{letter-spacing:-.04em;}.cls-22{letter-spacing:0em;}.cls-6{letter-spacing:0em;}.cls-7{letter-spacing:0em;}.cls-8{letter-spacing:.02em;}.cls-23{letter-spacing:-.04em;}.cls-24{letter-spacing:-.02em;}.cls-9{letter-spacing:-.06em;}.cls-10{letter-spacing:0em;}.cls-11{letter-spacing:0em;}.cls-13{letter-spacing:0em;}.cls-25{letter-spacing:0em;}.cls-38{font-size:14.17px;}.cls-35,.cls-37{stroke-linecap:square;}.cls-36{stroke-width:2.13px;}.cls-39{fill:#b3b3b3;}.cls-27{letter-spacing:-.01em;}.cls-15{letter-spacing:0em;}.cls-28{letter-spacing:-.08em;}.cls-16{letter-spacing:.02em;}.cls-17{letter-spacing:0em;}.cls-18{letter-spacing:-.01em;}</style></defs><text class="cls-38" transform="translate(47 650.29)"><tspan class="cls-26" x="0" y="0">N</tspan><tspan class="cls-20" x="9.33" y="0">Á</tspan><tspan class="cls-26" x="18.27" y="0">JDEŠ </tspan><tspan class="cls-14" x="49.92" y="0">Ś</tspan><tspan class="cls-9" x="56.49" y="0">V</tspan><tspan class="cls-14" x="62.86" y="0">ÁBI</tspan><tspan class="cls-17" x="81.29" y="0">K</tspan><tspan class="cls-14" x="88.48" y="0">A? </tspan><tspan class="cls-26" x="105.28" y="0">PO</tspan><tspan class="cls-21" x="122.58" y="0">L</tspan><tspan class="cls-26" x="128.72" y="0">OŽ</tspan><tspan class="cls-14" x="146.32" y="0" xml:space="preserve"> prš</tspan><tspan class="cls-13" x="166.72" y="0">t</tspan><tspan class="cls-14" x="171.01" y="0">ek na neh</tspan><tspan class="cls-5" x="226.19" y="0">o</tspan><tspan class="cls-14" x="233.47" y="0">.</tspan><tspan class="cls-26" x="0" y="17.01">Úlo</tspan><tspan class="cls-27" x="20.3" y="17.01">h</tspan><tspan class="cls-26" x="27.98" y="17.01">y p</tspan><tspan class="cls-19" x="45.72" y="17.01">r</tspan><tspan class="cls-26" x="50.22" y="17.01">e </tspan><tspan class="cls-19" x="60.32" y="17.01">r</tspan><tspan class="cls-26" x="64.81" y="17.01">odiča: </tspan><tspan class="cls-6" x="103.02" y="17.01">R</tspan><tspan class="cls-14" x="110.25" y="17.01">odič nahlas popíše a u</tspan><tspan class="cls-4" x="235.83" y="17.01">k</tspan><tspan class="cls-14" x="242.19" y="17.01">á</tspan><tspan class="cls-3" x="248.62" y="17.01">ž</tspan><tspan class="cls-2" x="254.22" y="17.01">e</tspan><tspan class="cls-14" x="260.95" y="17.01">, čo je na obráz</tspan><tspan class="cls-1" x="345.33" y="17.01">k</tspan><tspan class="cls-15" x="351.42" y="17.01">u</tspan><tspan class="cls-14" x="358.82" y="17.01">.</tspan><tspan class="cls-26" x="0" y="34.02">Úlo</tspan><tspan class="cls-27" x="20.3" y="34.02">h</tspan><tspan class="cls-26" x="27.98" y="34.02">y p</tspan><tspan class="cls-19" x="45.72" y="34.02">r</tspan><tspan class="cls-26" x="50.22" y="34.02">e dieťa: U</tspan><tspan class="cls-25" x="105.48" y="34.02">K</tspan><tspan class="cls-26" x="113.3" y="34.02">ÁŽ</tspan><tspan class="cls-14" x="129.81" y="34.02" xml:space="preserve"> (</tspan><tspan class="cls-12" x="136.67" y="34.02">k</tspan><tspan class="cls-14" x="142.93" y="34.02">vie</tspan><tspan class="cls-13" x="159.18" y="34.02">t</tspan><tspan class="cls-14" x="163.47" y="34.02">ok a tr</tspan><tspan class="cls-13" x="198.21" y="34.02">á</tspan><tspan class="cls-14" x="204.56" y="34.02">vič</tspan><tspan class="cls-1" x="220.25" y="34.02">k</tspan><tspan class="cls-14" x="226.34" y="34.02">u). </tspan><tspan class="cls-26" x="0" y="51.02">POVEDZ, </tspan><tspan class="cls-24" x="55.4" y="51.02">Č</tspan><tspan class="cls-26" x="63.32" y="51.02">O</tspan><tspan class="cls-23" x="73.09" y="51.02"> </tspan><tspan class="cls-26" x="75.58" y="51.02">VIDÍŠ</tspan><tspan class="cls-14" x="106.69" y="51.02" xml:space="preserve"> (</tspan><tspan class="cls-12" x="113.55" y="51.02">k</tspan><tspan class="cls-14" x="119.82" y="51.02">vie</tspan><tspan class="cls-13" x="136.06" y="51.02">t</tspan><tspan class="cls-14" x="140.35" y="51.02">ok a tr</tspan><tspan class="cls-13" x="175.09" y="51.02">á</tspan><tspan class="cls-14" x="181.44" y="51.02">vič</tspan><tspan class="cls-1" x="197.13" y="51.02">k</tspan><tspan class="cls-14" x="203.23" y="51.02">u). </tspan><tspan class="cls-26" x="220.08" y="51.02">V</tspan><tspan class="cls-22" x="227.99" y="51.02">Y</tspan><tspan class="cls-28" x="235.56" y="51.02">F</tspan><tspan class="cls-26" x="241.35" y="51.02">ARBI</tspan><tspan class="cls-14" x="268.72" y="51.02"> </tspan><tspan class="cls-7" x="271.82" y="51.02">(</tspan><tspan class="cls-14" x="275.52" y="51.02">čo sa ti páči na obráz</tspan><tspan class="cls-1" x="393.23" y="51.02">k</tspan><tspan class="cls-14" x="399.33" y="51.02">u). </tspan><tspan class="cls-26" x="0" y="68.03">SPOJ</tspan><tspan class="cls-14" x="29.54" y="68.03" xml:space="preserve"> (na</tspan><tspan class="cls-8" x="50.43" y="68.03">k</tspan><tspan class="cls-18" x="56.73" y="68.03">r</tspan><tspan class="cls-14" x="60.76" y="68.03">esli čia</tspan><tspan class="cls-10" x="97.71" y="68.03">r</tspan><tspan class="cls-1" x="102" y="68.03">k</tspan><tspan class="cls-14" x="108.1" y="68.03">u ta</tspan><tspan class="cls-16" x="129.54" y="68.03">k</tspan><tspan class="cls-14" x="135.82" y="68.03">, a</tspan><tspan class="cls-11" x="147.83" y="68.03">b</tspan><tspan class="cls-14" x="155.58" y="68.03">y </tspan><tspan class="cls-12" x="164.92" y="68.03">k</tspan><tspan class="cls-14" x="171.18" y="68.03">vie</tspan><tspan class="cls-13" x="187.42" y="68.03">t</tspan><tspan class="cls-14" x="191.72" y="68.03">ok </tspan><tspan class="cls-10" x="208.36" y="68.03">v</tspan><tspan class="cls-14" x="214.88" y="68.03">yrás</tspan><tspan class="cls-13" x="237.02" y="68.03">t</tspan><tspan class="cls-14" x="241.31" y="68.03">ol z tr</tspan><tspan class="cls-13" x="272.34" y="68.03">á</tspan><tspan class="cls-14" x="278.69" y="68.03">vič</tspan><tspan class="cls-12" x="294.38" y="68.03">k</tspan><tspan class="cls-14" x="300.64" y="68.03">y).</tspan></text><image width="1391" height="1550" transform="translate(95 433) scale(.05)" xlink:href="../../../../../2019/3-Švábik_pracovny-zosit/sidielko_sive.jpg"/><g><path d="M350.5,238.48c18.76,0,34.02,15.26,34.02,34.02s-15.26,34.02-34.02,34.02-34.02-15.26-34.02-34.02,15.26-34.02,34.02-34.02m0-1.42c-19.57,0-35.43,15.86-35.43,35.43s15.86,35.43,35.43,35.43,35.43-15.86,35.43-35.43-15.86-35.43-35.43-35.43h0Z"/><path class="cls-32" d="M341.71,238.73c-1.09-3.63-1.71-7.8-1.71-12.23,0-14.08,6.27-25.5,14-25.5s14,11.42,14,25.5c0,5.4-.92,10.41-2.5,14.54"/><path class="cls-32" d="M370.52,243.81c2.11-3.15,4.92-6.28,8.34-9.1,10.86-8.96,23.66-11.4,28.58-5.43s.11,18.06-10.76,27.03c-4.17,3.44-8.62,5.92-12.8,7.33"/><path class="cls-32" d="M367.42,218.33c6.09-7.28,13.51-10.79,18.71-8.13,4.64,2.38,6.32,9.07,4.96,17.02"/><path class="cls-32" d="M335.47,241.41c-1.46-3.5-3.61-7.12-6.42-10.54-8.92-10.9-21-15.76-26.99-10.87-5.98,4.9-3.6,17.7,5.32,28.6,3.42,4.18,7.31,7.47,11.14,9.67"/><path class="cls-32" d="M316.4,263.6c-3.63-1.11-7.79-1.74-12.22-1.76-14.08-.06-25.53,6.16-25.56,13.9-.03,7.73,11.36,14.05,25.44,14.1,5.4,.02,10.42-.88,14.55-2.44"/><path class="cls-32" d="M302.66,241.91c-9.32-1.78-17.29,.2-19.63,5.55-2.09,4.78,.85,11.02,6.94,16.31"/><path class="cls-33" d="M342.5,211.5c-6.56-6.85-13.7-9.58-18.7-6.57-4.47,2.68-5.7,9.48-3.8,17.32"/><path class="cls-32" d="M364.41,304.9c1.37,3.54,3.43,7.21,6.15,10.7,8.64,11.12,20.6,16.29,26.7,11.54s4.05-17.61-4.59-28.73c-3.32-4.27-7.12-7.66-10.89-9.95"/><path class="cls-37" d="M384.03,283.2c3.6,1.2,7.74,1.94,12.17,2.07,14.08,.41,25.67-5.52,25.9-13.25,.23-7.73-12.53-14.11-26.6-14.53"/><path class="cls-32" d="M397.22,305.22c9.27,2.01,17.29,.23,19.76-5.06,2.21-4.72-.57-11.04-6.53-16.48"/><path class="cls-32" d="M357.83,306.6c1,3.66,1.51,7.84,1.4,12.26-.36,14.08-6.91,25.33-14.64,25.14-7.73-.2-13.71-11.77-13.35-25.85,.14-5.4,1.18-10.39,2.86-14.47"/><path class="cls-32" d="M329.16,300.79c-2.18,3.1-5.08,6.16-8.57,8.89-11.08,8.69-23.94,10.8-28.71,4.71-4.77-6.09-3.65-16.44,7.61-24.89"/><path class="cls-32" d="M331.62,326.34c-6.27,7.12-13.78,10.45-18.91,7.66-4.58-2.49-6.09-9.23-4.53-17.14"/><path class="cls-33" d="M381.74,325.91c-.98,9.44-4.94,15.97-10.73,16.67-5.18,.62-10.31-3.99-13.63-11.34"/></g><g><path class="cls-39" d="M127.42,79.5c7.17,0,13,5.83,13,13s-5.83,13-13,13-13-5.83-13-13,5.83-13,13-13m0-1c-7.73,0-14,6.27-14,14s6.27,14,14,14,14-6.27,14-14-6.27-14-14-14h0Z"/><path class="cls-29" d="M123.95,79.16c-.43-1.43-.68-3.08-.68-4.83,0-5.56,2.48-10.08,5.53-10.08s5.53,4.51,5.53,10.08c0,2.13-.36,4.11-.99,5.74"/><path class="cls-29" d="M135.33,81.17c.83-1.25,1.95-2.48,3.3-3.6,4.29-3.54,9.35-4.5,11.29-2.15s.04,7.14-4.25,10.68c-1.65,1.36-3.4,2.34-5.06,2.9"/><path class="cls-29" d="M134.1,71.1c2.4-2.88,5.34-4.27,7.39-3.21,1.83,.94,2.5,3.58,1.96,6.73"/><path class="cls-29" d="M121.48,80.22c-.57-1.38-1.43-2.81-2.54-4.17-3.52-4.31-8.3-6.23-10.66-4.29s-1.42,6.99,2.1,11.3c1.35,1.65,2.89,2.95,4.4,3.82"/><path class="cls-29" d="M113.95,88.98c-1.43-.44-3.08-.69-4.83-.7-5.56-.02-10.09,2.44-10.1,5.49-.01,3.06,4.49,5.55,10.05,5.57,2.13,0,4.12-.35,5.75-.96"/><path class="cls-29" d="M108.52,80.42c-3.68-.7-6.83,.08-7.76,2.19-.82,1.89,.34,4.36,2.74,6.45"/><path class="cls-34" d="M124.26,68.4c-2.59-2.71-5.41-3.78-7.39-2.6-1.77,1.06-2.25,3.74-1.5,6.84"/><path class="cls-29" d="M132.91,105.3c.54,1.4,1.36,2.85,2.43,4.23,3.41,4.39,8.14,6.44,10.55,4.56s1.6-6.96-1.82-11.35c-1.31-1.69-2.81-3.02-4.3-3.93"/><path class="cls-35" d="M140.67,96.73c1.42,.47,3.06,.77,4.81,.82,5.56,.16,10.14-2.18,10.23-5.23s-4.95-5.58-10.51-5.74"/><path class="cls-29" d="M145.88,105.43c3.66,.8,6.83,.09,7.81-2,.87-1.87-.23-4.36-2.58-6.51"/><path class="cls-29" d="M130.32,105.98c.39,1.44,.6,3.1,.55,4.85-.14,5.56-2.73,10.01-5.78,9.93s-5.42-4.65-5.28-10.21c.05-2.13,.47-4.1,1.13-5.72"/><path class="cls-29" d="M118.99,103.68c-.86,1.22-2.01,2.43-3.39,3.51-4.38,3.43-9.46,4.27-11.34,1.86s-1.44-6.5,3.01-9.84"/><path class="cls-29" d="M119.96,113.78c-2.48,2.81-5.44,4.13-7.47,3.03-1.81-.98-2.41-3.65-1.79-6.77"/><path class="cls-34" d="M139.76,113.61c-.39,3.73-1.95,6.31-4.24,6.59-2.05,.25-4.07-1.58-5.38-4.48"/></g><g><path d="M626.17,123.62v1.42c8.81,0,17.16,3.36,23.52,9.45,6.56,6.28,10.28,14.75,10.48,23.83,.2,9.08-3.16,17.7-9.44,24.26-6.48,6.76-15.2,10.49-24.57,10.49-8.81,0-17.16-3.36-23.52-9.45-13.55-12.97-14.01-34.55-1.04-48.09,6.48-6.76,15.2-10.49,24.57-10.49v-1.42m0,0c-9.32,0-18.64,3.66-25.59,10.92-13.54,14.13-13.05,36.56,1.08,50.1,6.87,6.58,15.69,9.84,24.5,9.84,9.32,0,18.64-3.66,25.59-10.92,13.54-14.13,13.05-36.56-1.08-50.1-6.87-6.58-15.69-9.84-24.5-9.84h0Z"/><path class="cls-32" d="M609.15,189.52c-1.72,3.38-4.16,6.81-7.22,10.01-9.74,10.17-22.17,14.08-27.75,8.73-5.58-5.35-2.21-17.93,7.53-28.1,3.74-3.9,7.87-6.88,11.86-8.77"/><path class="cls-32" d="M591.86,165.92c-3.7,.82-7.9,1.13-12.32,.8-14.04-1.04-24.97-8.13-24.4-15.84s12.42-13.12,26.46-12.08c5.39,.4,10.32,1.69,14.31,3.56"/><path class="cls-32" d="M576.48,186.47c-9.43,1.05-17.22-1.55-19.14-7.06-1.71-4.93,1.71-10.92,8.19-15.72"/><path class="cls-32" d="M615.52,191.9c-1.37,3.53-2.31,7.64-2.66,12.06-1.1,14.04,4.26,25.91,11.97,26.51,7.71,.6,14.85-10.29,15.94-24.33,.42-5.39-.11-10.45-1.36-14.69"/><path class="cls-32" d="M644.63,189.07c1.85,3.31,4.42,6.65,7.61,9.72,10.13,9.78,22.7,13.2,28.07,7.64,5.37-5.56,1.51-18-8.62-27.78-3.89-3.75-8.13-6.57-12.19-8.3"/><path class="cls-32" d="M639.56,214.23c5.5,7.73,12.63,11.81,18.02,9.57,4.81-2.01,7.01-8.55,6.27-16.58"/><path class="cls-33" d="M589.75,208.64c0,9.49,3.27,16.39,8.96,17.68,5.08,1.15,10.67-2.9,14.72-9.88"/><path class="cls-32" d="M638.53,126.03c1.46-3.5,2.5-7.58,2.96-11.98,1.45-14.01-3.61-26.01-11.3-26.81s-15.1,9.91-16.55,23.92c-.56,5.37-.15,10.45,.99,14.72"/><path class="cls-37" d="M609.35,128.13c-1.77-3.35-4.25-6.76-7.36-9.91-9.88-10.04-22.36-13.77-27.87-8.35-5.51,5.42-.71,18.86,9.17,28.89"/><path class="cls-32" d="M615.06,103.1c-5.3-7.87-12.32-12.13-17.77-10.02-4.86,1.89-7.22,8.37-6.69,16.42"/><path class="cls-32" d="M644.46,129.35c1.81-3.33,4.33-6.71,7.47-9.83,10-9.92,22.51-13.52,27.96-8.03,5.45,5.49,1.76,17.98-8.24,27.9-3.83,3.81-8.04,6.68-12.07,8.47"/><path class="cls-32" d="M661.15,153.38c3.72-.73,7.93-.93,12.33-.49,14.01,1.39,24.75,8.76,23.99,16.45-.77,7.69-8.73,14.4-22.71,12.71"/><path class="cls-32" d="M677.04,133.23c9.45-.81,17.18,1.98,18.95,7.55,1.58,4.97-1.98,10.88-8.59,15.51"/><path class="cls-33" d="M640.55,98.87c7.24-6.14,14.61-8.12,19.28-4.61,4.17,3.13,4.69,10.01,1.99,17.62"/></g><g><path d="M878.17,365.62v1.42c8.81,0,17.16,3.36,23.52,9.45,6.56,6.28,10.28,14.75,10.48,23.83,.2,9.08-3.16,17.7-9.44,24.26-6.48,6.76-15.2,10.49-24.57,10.49-8.81,0-17.16-3.36-23.52-9.45-13.55-12.97-14.01-34.55-1.04-48.09,6.48-6.76,15.2-10.49,24.57-10.49v-1.42m0,0c-9.32,0-18.64,3.66-25.59,10.92-13.54,14.13-13.05,36.56,1.08,50.1,6.87,6.58,15.69,9.84,24.5,9.84,9.32,0,18.64-3.66,25.59-10.92,13.54-14.13,13.05-36.56-1.08-50.1-6.87-6.58-15.69-9.84-24.5-9.84h0Z"/><path class="cls-32" d="M861.15,431.52c-1.72,3.38-4.16,6.81-7.22,10.01-9.74,10.17-22.17,14.08-27.75,8.73-5.58-5.35-2.21-17.93,7.53-28.1,3.74-3.9,7.87-6.88,11.86-8.77"/><path class="cls-32" d="M843.86,407.92c-3.7,.82-7.9,1.13-12.32,.8-14.04-1.04-24.97-8.13-24.4-15.84s12.42-13.12,26.46-12.08c5.39,.4,10.32,1.69,14.31,3.56"/><path class="cls-32" d="M828.48,428.47c-9.43,1.05-17.22-1.55-19.14-7.06-1.71-4.93,1.71-10.92,8.19-15.72"/><path class="cls-32" d="M867.52,433.9c-1.37,3.53-2.31,7.64-2.66,12.06-1.1,14.04,4.26,25.91,11.97,26.51,7.71,.6,14.85-10.29,15.94-24.33,.42-5.39-.11-10.45-1.36-14.69"/><path class="cls-32" d="M896.63,431.07c1.85,3.31,4.42,6.65,7.61,9.72,10.13,9.78,22.7,13.2,28.07,7.64,5.37-5.56,1.51-18-8.62-27.78-3.89-3.75-8.13-6.57-12.19-8.3"/><path class="cls-32" d="M891.56,456.23c5.5,7.73,12.63,11.81,18.02,9.57,4.81-2.01,7.01-8.55,6.27-16.58"/><path class="cls-33" d="M841.75,450.64c0,9.49,3.27,16.39,8.96,17.68,5.08,1.15,10.67-2.9,14.72-9.88"/><path class="cls-32" d="M890.53,368.03c1.46-3.5,2.5-7.58,2.96-11.98,1.45-14.01-3.61-26.01-11.3-26.81s-15.1,9.91-16.55,23.92c-.56,5.37-.15,10.45,.99,14.72"/><path class="cls-37" d="M861.35,370.13c-1.77-3.35-4.25-6.76-7.36-9.91-9.88-10.04-22.36-13.77-27.87-8.35-5.51,5.42-.71,18.86,9.17,28.89"/><path class="cls-32" d="M867.06,345.1c-5.3-7.87-12.32-12.13-17.77-10.02-4.86,1.89-7.22,8.37-6.69,16.42"/><path class="cls-32" d="M896.46,371.35c1.81-3.33,4.33-6.71,7.47-9.83,10-9.92,22.51-13.52,27.96-8.03,5.45,5.49,1.76,17.98-8.24,27.9-3.83,3.81-8.04,6.68-12.07,8.47"/><path class="cls-32" d="M913.15,395.38c3.72-.73,7.93-.93,12.33-.49,14.01,1.39,24.75,8.76,23.99,16.45-.77,7.69-8.73,14.4-22.71,12.71"/><path class="cls-32" d="M929.04,375.23c9.45-.81,17.18,1.98,18.95,7.55,1.58,4.97-1.98,10.88-8.59,15.51"/><path class="cls-33" d="M892.55,340.87c7.24-6.14,14.61-8.12,19.28-4.61,4.17,3.13,4.69,10.01,1.99,17.62"/></g><line class="cls-31" x1="46.5" y1="594.5" x2="959" y2="591"/><path d="M58.05,570c.14,4,.26,8,.35,12,.08,3.94,.36,8.27-.45,12-.54-3.99-.52-7.99-.35-12,.19-3.93,.02-8.26,.45-12h0Z"/><path d="M78.55,570c.14,4,.26,8,.35,12,.08,3.94,.36,8.27-.45,12-.54-3.99-.52-7.99-.35-12,.19-3.93,.02-8.26,.45-12h0Z"/><path class="cls-39" d="M52.1,160.33c.14,2.22,.26,4.45,.35,6.67,.1,1.93,.32,5-.45,6.67-.55-2.21-.52-4.43-.35-6.67,.09-2.22,.21-4.45,.35-6.67h.1Z"/><path class="cls-39" d="M68.1,160.33c.14,2.22,.26,4.45,.35,6.67,.1,1.93,.32,5-.45,6.67-.55-2.21-.52-4.43-.35-6.67,.09-2.22,.21-4.45,.35-6.67h.1Z"/><path class="cls-39" d="M84.1,160.33c.14,2.22,.26,4.45,.35,6.67,.1,1.93,.32,5-.45,6.67-.55-2.21-.52-4.43-.35-6.67,.09-2.22,.21-4.45,.35-6.67h.1Z"/><path class="cls-39" d="M110.1,160.33c.14,2.22,.26,4.45,.35,6.67,.1,1.93,.32,5-.45,6.67-.55-2.21-.52-4.43-.35-6.67,.09-2.22,.21-4.45,.35-6.67h.1Z"/><path class="cls-39" d="M114.1,160.33c.14,2.22,.26,4.45,.35,6.67,.1,1.93,.32,5-.45,6.67-.55-2.21-.52-4.43-.35-6.67,.09-2.22,.21-4.45,.35-6.67h.1Z"/><path class="cls-39" d="M134.1,160.33c.14,2.22,.26,4.45,.35,6.67,.1,1.93,.32,5-.45,6.67-.55-2.21-.52-4.43-.35-6.67,.09-2.22,.21-4.45,.35-6.67h.1Z"/><path class="cls-39" d="M151.1,160.33c.14,2.22,.26,4.45,.35,6.67,.1,1.93,.32,5-.45,6.67-.55-2.21-.52-4.43-.35-6.67,.09-2.22,.21-4.45,.35-6.67h.1Z"/><path class="cls-39" d="M187.1,160.33c.14,2.22,.26,4.45,.35,6.67,.1,1.93,.32,5-.45,6.67-.55-2.21-.52-4.43-.35-6.67,.09-2.22,.21-4.45,.35-6.67h.1Z"/><path class="cls-39" d="M172.1,160.33c.14,2.22,.26,4.45,.35,6.67,.1,1.93,.32,5-.45,6.67-.55-2.21-.52-4.43-.35-6.67,.09-2.22,.21-4.45,.35-6.67h.1Z"/><path class="cls-39" d="M199.1,160.33c.14,2.22,.26,4.45,.35,6.67,.1,1.93,.32,5-.45,6.67-.55-2.21-.52-4.43-.35-6.67,.09-2.22,.21-4.45,.35-6.67h.1Z"/><path d="M127.55,570c.14,4,.26,8,.35,12,.08,3.94,.36,8.27-.45,12-.54-3.99-.52-7.99-.35-12,.19-3.93,.02-8.26,.45-12h0Z"/><path d="M157.05,570c.14,4,.26,8,.35,12,.08,3.94,.36,8.27-.45,12-.54-3.99-.52-7.99-.35-12,.19-3.93,.02-8.26,.45-12h0Z"/><path d="M177.55,570c.14,4,.26,8,.35,12,.08,3.94,.36,8.27-.45,12-.54-3.99-.52-7.99-.35-12,.19-3.93,.02-8.26,.45-12h0Z"/><path d="M206.05,570c.14,4,.26,8,.35,12,.08,3.94,.36,8.27-.45,12-.54-3.99-.52-7.99-.35-12,.19-3.93,.02-8.26,.45-12h0Z"/><path d="M226.55,570c.14,4,.26,8,.35,12,.08,3.94,.36,8.27-.45,12-.54-3.99-.52-7.99-.35-12,.19-3.93,.02-8.26,.45-12h0Z"/><path d="M254.05,569c.14,4,.26,8,.35,12,.08,3.94,.36,8.27-.45,12-.54-3.99-.52-7.99-.35-12,.19-3.93,.02-8.26,.45-12h0Z"/><path d="M274.55,569c.14,4,.26,8,.35,12,.08,3.94,.36,8.27-.45,12-.54-3.99-.52-7.99-.35-12,.19-3.93,.02-8.26,.45-12h0Z"/><path d="M303.05,569c.14,4,.26,8,.35,12,.08,3.94,.36,8.27-.45,12-.54-3.99-.52-7.99-.35-12,.19-3.93,.02-8.26,.45-12h0Z"/><path d="M323.55,569c.14,4,.26,8,.35,12,.08,3.94,.36,8.27-.45,12-.54-3.99-.52-7.99-.35-12,.19-3.93,.02-8.26,.45-12h0Z"/><path d="M353.05,569c.14,4,.26,8,.35,12,.08,3.94,.36,8.27-.45,12-.54-3.99-.52-7.99-.35-12,.19-3.93,.02-8.26,.45-12h0Z"/><path d="M373.55,569c.14,4,.26,8,.35,12,.08,3.94,.36,8.27-.45,12-.54-3.99-.52-7.99-.35-12,.19-3.93,.02-8.26,.45-12h0Z"/><path d="M402.05,569c.14,4,.26,8,.35,12,.08,3.94,.36,8.27-.45,12-.54-3.99-.52-7.99-.35-12,.19-3.93,.02-8.26,.45-12h0Z"/><path d="M422.55,569c.14,4,.26,8,.35,12,.08,3.94,.36,8.27-.45,12-.54-3.99-.52-7.99-.35-12,.19-3.93,.02-8.26,.45-12h0Z"/><path d="M434.05,569c.14,4,.26,8,.35,12,.08,3.94,.36,8.27-.45,12-.54-3.99-.52-7.99-.35-12,.19-3.93,.02-8.26,.45-12h0Z"/><path d="M454.55,569c.14,4,.26,8,.35,12,.08,3.94,.36,8.27-.45,12-.54-3.99-.52-7.99-.35-12,.19-3.93,.02-8.26,.45-12h0Z"/><path d="M483.05,569c.14,4,.26,8,.35,12,.08,3.94,.36,8.27-.45,12-.54-3.99-.52-7.99-.35-12,.19-3.93,.02-8.26,.45-12h0Z"/><path d="M503.55,543.99c1.35,8.15,2.9,16.23,3.34,24.51-.16,8.28-1.57,16.44-3.34,24.51l-.1-.02c.68-8.18,2.15-16.33,2.66-24.49-.15-8.12-1.81-16.6-2.56-24.51h0Z"/><path d="M336.55,543.99c1.35,8.15,2.9,16.23,3.34,24.51-.16,8.28-1.57,16.44-3.34,24.51l-.1-.02c.68-8.18,2.15-16.33,2.66-24.49-.15-8.12-1.81-16.6-2.56-24.51h0Z"/><path d="M190.55,542.99c1.35,8.15,2.9,16.23,3.34,24.51-.16,8.28-1.57,16.44-3.34,24.51l-.1-.02c.68-8.18,2.15-16.33,2.66-24.49-.15-8.12-1.81-16.6-2.56-24.51h0Z"/><path class="cls-39" d="M58.5,145.33c-.53,4.5-1.22,9.09-1.32,13.61,.35,4.51,1.19,9.05,1.32,13.61l-.1,.02c-1.23-4.46-1.99-8.97-2.01-13.63,.37-4.52,1.06-9.4,2.11-13.61h0Z"/><path class="cls-39" d="M74.83,146.32c.82,4.54,1.72,9,2.01,13.63-.02,4.65-.78,9.17-2.01,13.63l-.1-.02c.13-4.56,.97-9.1,1.32-13.61,0-4.47-1.01-9.33-1.22-13.63h0Z"/><path class="cls-39" d="M87.83,146.32c.82,4.54,1.72,9,2.01,13.63-.02,4.65-.78,9.17-2.01,13.63l-.1-.02c.13-4.56,.97-9.1,1.32-13.61,0-4.47-1.01-9.33-1.22-13.63h0Z"/><path class="cls-39" d="M102.83,145.32c.82,4.54,1.72,9,2.01,13.63-.02,4.65-.78,9.17-2.01,13.63l-.1-.02c.13-4.56,.97-9.1,1.32-13.61,0-4.47-1.01-9.33-1.22-13.63h0Z"/><path class="cls-39" d="M141.83,145.32c.82,4.54,1.72,9,2.01,13.63-.02,4.65-.78,9.17-2.01,13.63l-.1-.02c.13-4.56,.97-9.1,1.32-13.61,0-4.47-1.01-9.33-1.22-13.63h0Z"/><path class="cls-36" d="M130,117s-1.55,38.61-1.55,41.94-2.45,15.06-2.45,15.06"/><path class="cls-39" d="M160.83,146.32c.82,4.54,1.72,9,2.01,13.63-.02,4.65-.78,9.17-2.01,13.63l-.1-.02c.13-4.56,.97-9.1,1.32-13.61,0-4.47-1.01-9.33-1.22-13.63h0Z"/><path d="M666.55,543.01c-1.07,8.12-2.39,16.32-2.66,24.49,.5,8.16,1.98,16.31,2.66,24.49l-.1,.02c-1.77-8.06-3.18-16.23-3.34-24.51,.15-4.17,.78-8.23,1.35-12.32,.7-3.99,1.14-8.42,2.1-12.18h0Z"/><path d="M816.55,543.01c-1.07,8.12-2.39,16.32-2.66,24.49,.5,8.16,1.98,16.31,2.66,24.49l-.1,.02c-1.77-8.06-3.18-16.23-3.34-24.51,.15-4.17,.78-8.23,1.35-12.32,.7-3.99,1.14-8.42,2.1-12.18h0Z"/><path d="M533.05,569c.14,4,.26,8,.35,12,.08,3.94,.36,8.27-.45,12-.54-3.99-.52-7.99-.35-12,.19-3.93,.02-8.26,.45-12h0Z"/><path d="M553.55,569c.14,4,.26,8,.35,12,.08,3.94,.36,8.27-.45,12-.54-3.99-.52-7.99-.35-12,.19-3.93,.02-8.26,.45-12h0Z"/><path d="M582.05,569c.14,4,.26,8,.35,12,.08,3.94,.36,8.27-.45,12-.54-3.99-.52-7.99-.35-12,.19-3.93,.02-8.26,.45-12h0Z"/><path d="M602.55,569c.14,4,.26,8,.35,12,.08,3.94,.36,8.27-.45,12-.54-3.99-.52-7.99-.35-12,.19-3.93,.02-8.26,.45-12h0Z"/><path d="M630.05,568c.14,4,.26,8,.35,12,.08,3.94,.36,8.27-.45,12-.54-3.99-.52-7.99-.35-12,.19-3.93,.02-8.26,.45-12h0Z"/><path d="M650.55,568c.14,4,.26,8,.35,12,.08,3.94,.36,8.27-.45,12-.54-3.99-.52-7.99-.35-12,.19-3.93,.02-8.26,.45-12h0Z"/><path d="M679.05,568c.14,4,.26,8,.35,12,.08,3.94,.36,8.27-.45,12-.54-3.99-.52-7.99-.35-12,.19-3.93,.02-8.26,.45-12h0Z"/><path d="M699.55,568c.14,4,.26,8,.35,12,.08,3.94,.36,8.27-.45,12-.54-3.99-.52-7.99-.35-12,.19-3.93,.02-8.26,.45-12h0Z"/><path d="M729.05,568c.14,4,.26,8,.35,12,.08,3.94,.36,8.27-.45,12-.54-3.99-.52-7.99-.35-12,.19-3.93,.02-8.26,.45-12h0Z"/><path d="M749.55,568c.14,4,.26,8,.35,12,.08,3.94,.36,8.27-.45,12-.54-3.99-.52-7.99-.35-12,.19-3.93,.02-8.26,.45-12h0Z"/><path d="M778.05,568c.14,4,.26,8,.35,12,.08,3.94,.36,8.27-.45,12-.54-3.99-.52-7.99-.35-12,.19-3.93,.02-8.26,.45-12h0Z"/><path d="M798.55,568c.14,4,.26,8,.35,12,.08,3.94,.36,8.27-.45,12-.54-3.99-.52-7.99-.35-12,.19-3.93,.02-8.26,.45-12h0Z"/><path d="M832.05,568c.14,4,.26,8,.35,12,.08,3.94,.36,8.27-.45,12-.54-3.99-.52-7.99-.35-12,.19-3.93,.02-8.26,.45-12h0Z"/><path d="M852.55,568c.14,4,.26,8,.35,12,.08,3.94,.36,8.27-.45,12-.54-3.99-.52-7.99-.35-12,.19-3.93,.02-8.26,.45-12h0Z"/><path d="M882.05,568c.14,4,.26,8,.35,12,.08,3.94,.36,8.27-.45,12-.54-3.99-.52-7.99-.35-12,.19-3.93,.02-8.26,.45-12h0Z"/><path d="M902.55,568c.14,4,.26,8,.35,12,.08,3.94,.36,8.27-.45,12-.54-3.99-.52-7.99-.35-12,.19-3.93,.02-8.26,.45-12h0Z"/><path d="M931.05,568c.14,4,.26,8,.35,12,.08,3.94,.36,8.27-.45,12-.54-3.99-.52-7.99-.35-12,.19-3.93,.02-8.26,.45-12h0Z"/><path d="M951.55,568c.14,4,.26,8,.35,12,.08,3.94,.36,8.27-.45,12-.54-3.99-.52-7.99-.35-12,.19-3.93,.02-8.26,.45-12h0Z"/><line class="cls-30" x1="47.5" y1="175.5" x2="206.5" y2="175.5"/></svg>